<?xml version="1.0" encoding="UTF-8" standalone="no"?>
<!DOCTYPE svg PUBLIC "-//W3C//DTD SVG 1.1//EN"
 "http://www.w3.org/Graphics/SVG/1.1/DTD/svg11.dtd">
<!-- Generated by graphviz version 14.1.2 (20260124.0452)
 -->
<!-- Title: EmptyGraphPerspective Pages: 1 -->
<svg width="457pt" height="489pt"
 viewBox="0.00 0.00 457.00 489.00" xmlns="http://www.w3.org/2000/svg" xmlns:xlink="http://www.w3.org/1999/xlink">
<g id="graph0" class="graph" transform="scale(1 1) rotate(0) translate(4 485.29)">
<title>EmptyGraphPerspective</title>
<polygon fill="white" stroke="none" points="-4,4 -4,-485.29 453.33,-485.29 453.33,4 -4,4"/>
<text xml:space="preserve" text-anchor="start" x="73.54" y="-464.99" font-family="Helvetica,sans-Serif" font-weight="bold" font-size="14.00">EmptyGraph Perspective: Logical Event Graph</text>
<text xml:space="preserve" text-anchor="start" x="108.79" y="-454.79" font-family="Helvetica,sans-Serif" font-size="10.00">Git storage abstracted away — just nodes and edges</text>
<g id="clust1" class="cluster">
<title>cluster_notes</title>
<path fill="white" stroke="#90a4ae" d="M243.33,-314.04C243.33,-314.04 429.33,-314.04 429.33,-314.04 435.33,-314.04 441.33,-320.04 441.33,-326.04 441.33,-326.04 441.33,-429.29 441.33,-429.29 441.33,-435.29 435.33,-441.29 429.33,-441.29 429.33,-441.29 243.33,-441.29 243.33,-441.29 237.33,-441.29 231.33,-435.29 231.33,-429.29 231.33,-429.29 231.33,-326.04 231.33,-326.04 231.33,-320.04 237.33,-314.04 243.33,-314.04"/>
<text xml:space="preserve" text-anchor="middle" x="336.33" y="-427.79" font-family="Helvetica,sans-Serif" font-size="10.00">Key Concepts</text>
</g>
<!-- order_created -->
<g id="node1" class="node">
<title>order_created</title>
<ellipse fill="#c8e6c9" stroke="#2e7d32" stroke-width="2" cx="132.33" cy="-19.8" rx="62.76" ry="19.8"/>
<text xml:space="preserve" text-anchor="start" x="96.71" y="-20.35" font-family="Helvetica,sans-Serif" font-weight="bold" font-size="11.00">OrderCreated</text>
<text xml:space="preserve" text-anchor="start" x="95.96" y="-11.25" font-family="Helvetica,sans-Serif" font-size="9.00">orderId: ORD&#45;001</text>
</g>
<!-- item_added_1 -->
<g id="node2" class="node">
<title>item_added_1</title>
<ellipse fill="#bbdefb" stroke="#1565c0" stroke-width="2" cx="55.33" cy="-127.15" rx="55.33" ry="19.8"/>
<text xml:space="preserve" text-anchor="start" x="26.83" y="-127.7" font-family="Helvetica,sans-Serif" font-weight="bold" font-size="11.00">ItemAdded</text>
<text xml:space="preserve" text-anchor="start" x="24.21" y="-118.6" font-family="Helvetica,sans-Serif" font-size="9.00">sku: WIDGET&#45;1</text>
</g>
<!-- item_added_1&#45;&gt;order_created -->
<g id="edge1" class="edge">
<title>item_added_1&#45;&gt;order_created</title>
<path fill="none" stroke="#37474f" stroke-width="2" d="M69.1,-107.31C81.01,-91.01 98.41,-67.21 111.94,-48.69"/>
<polygon fill="#37474f" stroke="#37474f" stroke-width="2" points="114.18,-50.38 116.64,-42.27 109.66,-47.08 114.18,-50.38"/>
<text xml:space="preserve" text-anchor="middle" x="117.14" y="-69.8" font-family="Helvetica,sans-Serif" font-size="9.00">caused by</text>
</g>
<!-- item_added_2 -->
<g id="node3" class="node">
<title>item_added_2</title>
<ellipse fill="#bbdefb" stroke="#1565c0" stroke-width="2" cx="210.33" cy="-127.15" rx="56.92" ry="19.8"/>
<text xml:space="preserve" text-anchor="start" x="181.83" y="-127.7" font-family="Helvetica,sans-Serif" font-weight="bold" font-size="11.00">ItemAdded</text>
<text xml:space="preserve" text-anchor="start" x="178.08" y="-118.6" font-family="Helvetica,sans-Serif" font-size="9.00">sku: GADGET&#45;2</text>
</g>
<!-- item_added_2&#45;&gt;order_created -->
<g id="edge2" class="edge">
<title>item_added_2&#45;&gt;order_created</title>
<path fill="none" stroke="#37474f" stroke-width="2" d="M196.39,-107.31C184.26,-90.94 166.53,-66.99 152.8,-48.44"/>
<polygon fill="#37474f" stroke="#37474f" stroke-width="2" points="155.23,-47.02 148.22,-42.26 150.73,-50.35 155.23,-47.02"/>
<text xml:space="preserve" text-anchor="middle" x="194.67" y="-69.8" font-family="Helvetica,sans-Serif" font-size="9.00">caused by</text>
</g>
<!-- payment -->
<g id="node4" class="node">
<title>payment</title>
<ellipse fill="#e1bee7" stroke="#7b1fa2" stroke-width="2" cx="132.33" cy="-234.49" rx="77.6" ry="19.8"/>
<text xml:space="preserve" text-anchor="start" x="85.46" y="-235.04" font-family="Helvetica,sans-Serif" font-weight="bold" font-size="11.00">PaymentReceived</text>
<text xml:space="preserve" text-anchor="start" x="100.46" y="-225.94" font-family="Helvetica,sans-Serif" font-size="9.00">amount: $99.99</text>
</g>
<!-- payment&#45;&gt;item_added_1 -->
<g id="edge3" class="edge">
<title>payment&#45;&gt;item_added_1</title>
<path fill="none" stroke="#37474f" stroke-width="2" d="M118.21,-214.17C106.25,-197.81 88.96,-174.15 75.53,-155.79"/>
<polygon fill="#37474f" stroke="#37474f" stroke-width="2" points="77.87,-154.24 70.89,-149.44 73.35,-157.55 77.87,-154.24"/>
<text xml:space="preserve" text-anchor="middle" x="113.01" y="-177.15" font-family="Helvetica,sans-Serif" font-size="9.00">requires</text>
</g>
<!-- payment&#45;&gt;item_added_2 -->
<g id="edge4" class="edge">
<title>payment&#45;&gt;item_added_2</title>
<path fill="none" stroke="#37474f" stroke-width="2" d="M146.64,-214.17C158.75,-197.81 176.27,-174.15 189.87,-155.79"/>
<polygon fill="#37474f" stroke="#37474f" stroke-width="2" points="192.07,-157.52 194.58,-149.43 187.57,-154.19 192.07,-157.52"/>
<text xml:space="preserve" text-anchor="middle" x="190.54" y="-177.15" font-family="Helvetica,sans-Serif" font-size="9.00">requires</text>
</g>
<!-- shipped -->
<g id="node5" class="node">
<title>shipped</title>
<ellipse fill="#ffe0b2" stroke="#e65100" stroke-width="2" cx="132.33" cy="-368.04" rx="63.29" ry="19.8"/>
<text xml:space="preserve" text-anchor="start" x="95.58" y="-368.59" font-family="Helvetica,sans-Serif" font-weight="bold" font-size="11.00">OrderShipped</text>
<text xml:space="preserve" text-anchor="start" x="100.83" y="-359.49" font-family="Helvetica,sans-Serif" font-size="9.00">tracking: 1Z999</text>
</g>
<!-- shipped&#45;&gt;payment -->
<g id="edge5" class="edge">
<title>shipped&#45;&gt;payment</title>
<path fill="none" stroke="#37474f" stroke-width="2" d="M132.33,-347.35C132.33,-325.72 132.33,-290.73 132.33,-265.64"/>
<polygon fill="#37474f" stroke="#37474f" stroke-width="2" points="135.13,-265.92 132.33,-257.92 129.53,-265.92 135.13,-265.92"/>
<text xml:space="preserve" text-anchor="middle" x="156.71" y="-284.49" font-family="Helvetica,sans-Serif" font-size="9.00">triggered by</text>
</g>
<!-- note -->
<g id="node6" class="node">
<title>note</title>
<polygon fill="#fafafa" stroke="none" stroke-width="2" points="433.58,-414.04 239.08,-414.04 239.08,-322.04 433.58,-322.04 433.58,-414.04"/>
<text xml:space="preserve" text-anchor="start" x="253.08" y="-394.59" font-family="Helvetica,sans-Serif" font-size="11.00">• </text>
<text xml:space="preserve" text-anchor="start" x="259.83" y="-394.59" font-family="Helvetica,sans-Serif" font-weight="bold" font-size="11.00">Nodes</text>
<text xml:space="preserve" text-anchor="start" x="293.58" y="-394.59" font-family="Helvetica,sans-Serif" font-size="11.00"> = Events with data</text>
<text xml:space="preserve" text-anchor="start" x="253.08" y="-374.59" font-family="Helvetica,sans-Serif" font-size="11.00">• </text>
<text xml:space="preserve" text-anchor="start" x="259.83" y="-374.59" font-family="Helvetica,sans-Serif" font-weight="bold" font-size="11.00">Edges</text>
<text xml:space="preserve" text-anchor="start" x="292.83" y="-374.59" font-family="Helvetica,sans-Serif" font-size="11.00"> = Causal relationships</text>
<text xml:space="preserve" text-anchor="start" x="253.08" y="-354.59" font-family="Helvetica,sans-Serif" font-size="11.00">• </text>
<text xml:space="preserve" text-anchor="start" x="259.83" y="-354.59" font-family="Helvetica,sans-Serif" font-weight="bold" font-size="11.00">Structure</text>
<text xml:space="preserve" text-anchor="start" x="309.33" y="-354.59" font-family="Helvetica,sans-Serif" font-size="11.00"> = DAG (no cycles)</text>
<text xml:space="preserve" text-anchor="start" x="253.08" y="-334.59" font-family="Helvetica,sans-Serif" font-size="11.00">• </text>
<text xml:space="preserve" text-anchor="start" x="259.83" y="-334.59" font-family="Helvetica,sans-Serif" font-weight="bold" font-size="11.00">Storage</text>
<text xml:space="preserve" text-anchor="start" x="301.08" y="-334.59" font-family="Helvetica,sans-Serif" font-size="11.00"> = Invisible (Git internals)</text>
</g>
</g>
</svg>
