<?xml version="1.0" encoding="UTF-8" standalone="no"?>
<!DOCTYPE svg PUBLIC "-//W3C//DTD SVG 1.1//EN"
 "http://www.w3.org/Graphics/SVG/1.1/DTD/svg11.dtd">
<!-- Generated by graphviz version 14.1.2 (20260124.0452)
 -->
<!-- Title: GitPerspective Pages: 1 -->
<svg width="799pt" height="482pt"
 viewBox="0.00 0.00 799.00 482.00" xmlns="http://www.w3.org/2000/svg" xmlns:xlink="http://www.w3.org/1999/xlink">
<g id="graph0" class="graph" transform="scale(1 1) rotate(0) translate(4 477.75)">
<title>GitPerspective</title>
<polygon fill="white" stroke="none" points="-4,4 -4,-477.75 795.12,-477.75 795.12,4 -4,4"/>
<text xml:space="preserve" text-anchor="start" x="279.69" y="-457.45" font-family="Helvetica,sans-Serif" font-weight="bold" font-size="14.00">Git Perspective: Empty Tree Pattern</text>
<text xml:space="preserve" text-anchor="start" x="264.31" y="-447.25" font-family="Helvetica,sans-Serif" font-size="10.00">All commits point to the same empty tree — no files created</text>
<g id="clust1" class="cluster">
<title>cluster_commits</title>
<polygon fill="white" stroke="#90a4ae" stroke-dasharray="5,2" points="178.12,-8 178.12,-433.75 426.12,-433.75 426.12,-8 178.12,-8"/>
<text xml:space="preserve" text-anchor="middle" x="302.12" y="-420.25" font-family="Helvetica,sans-Serif" font-size="10.00">Commits (contain event data in messages)</text>
</g>
<g id="clust2" class="cluster">
<title>cluster_legend</title>
<path fill="white" stroke="#bdbdbd" d="M707.12,-125.75C707.12,-125.75 771.12,-125.75 771.12,-125.75 777.12,-125.75 783.12,-131.75 783.12,-137.75 783.12,-137.75 783.12,-421.75 783.12,-421.75 783.12,-427.75 777.12,-433.75 771.12,-433.75 771.12,-433.75 707.12,-433.75 707.12,-433.75 701.12,-433.75 695.12,-427.75 695.12,-421.75 695.12,-421.75 695.12,-137.75 695.12,-137.75 695.12,-131.75 701.12,-125.75 707.12,-125.75"/>
<text xml:space="preserve" text-anchor="middle" x="739.12" y="-420.25" font-family="Helvetica,sans-Serif" font-size="10.00">Legend</text>
</g>
<!-- empty_tree -->
<g id="node1" class="node">
<title>empty_tree</title>
<path fill="#fff3e0" stroke="#e65100" stroke-width="2" d="M84.25,-404.25C84.25,-406.18 65.37,-407.75 42.12,-407.75 18.88,-407.75 0,-406.18 0,-404.25 0,-404.25 0,-372.75 0,-372.75 0,-370.82 18.88,-369.25 42.12,-369.25 65.37,-369.25 84.25,-370.82 84.25,-372.75 84.25,-372.75 84.25,-404.25 84.25,-404.25"/>
<path fill="none" stroke="#e65100" stroke-width="2" d="M84.25,-404.25C84.25,-402.32 65.37,-400.75 42.12,-400.75 18.88,-400.75 0,-402.32 0,-404.25"/>
<text xml:space="preserve" text-anchor="start" x="12.5" y="-389.05" font-family="Helvetica,sans-Serif" font-weight="bold" font-size="11.00">Empty Tree</text>
<text xml:space="preserve" text-anchor="start" x="8" y="-379.95" font-family="Helvetica,sans-Serif" font-size="9.00" fill="#e65100">4b825dc642cb...</text>
</g>
<!-- order_created -->
<g id="node2" class="node">
<title>order_created</title>
<path fill="#e3f2fd" stroke="#1976d2" stroke-width="2" d="M310.62,-406.5C310.62,-406.5 237.62,-406.5 237.62,-406.5 231.62,-406.5 225.62,-400.5 225.62,-394.5 225.62,-394.5 225.62,-382.5 225.62,-382.5 225.62,-376.5 231.62,-370.5 237.62,-370.5 237.62,-370.5 310.62,-370.5 310.62,-370.5 316.62,-370.5 322.62,-376.5 322.62,-382.5 322.62,-382.5 322.62,-394.5 322.62,-394.5 322.62,-400.5 316.62,-406.5 310.62,-406.5"/>
<text xml:space="preserve" text-anchor="start" x="252.38" y="-393.05" font-family="Helvetica,sans-Serif" font-weight="bold" font-size="11.00">a1b2c3d</text>
<text xml:space="preserve" text-anchor="start" x="246.38" y="-383.95" font-family="Helvetica,sans-Serif" font-size="9.00">order&#45;created</text>
<text xml:space="preserve" text-anchor="start" x="233.62" y="-375.9" font-family="Helvetica,sans-Serif" font-size="8.00" fill="#666666">{&quot;orderId&quot;:&quot;ORD&#45;001&quot;}</text>
</g>
<!-- order_created&#45;&gt;empty_tree -->
<g id="edge6" class="edge">
<title>order_created&#45;&gt;empty_tree</title>
<path fill="none" stroke="#e65100" stroke-width="1.5" stroke-dasharray="5,2" d="M224.64,-395C224.64,-395 97.18,-395 97.18,-395"/>
<polygon fill="#e65100" stroke="#e65100" stroke-width="1.5" points="97.18,-391.5 87.18,-395 97.18,-398.5 97.18,-391.5"/>
</g>
<!-- item_added_1 -->
<g id="node3" class="node">
<title>item_added_1</title>
<path fill="#e3f2fd" stroke="#1976d2" stroke-width="2" d="M260.38,-287.5C260.38,-287.5 197.88,-287.5 197.88,-287.5 191.88,-287.5 185.88,-281.5 185.88,-275.5 185.88,-275.5 185.88,-263.5 185.88,-263.5 185.88,-257.5 191.88,-251.5 197.88,-251.5 197.88,-251.5 260.38,-251.5 260.38,-251.5 266.38,-251.5 272.38,-257.5 272.38,-263.5 272.38,-263.5 272.38,-275.5 272.38,-275.5 272.38,-281.5 266.38,-287.5 260.38,-287.5"/>
<text xml:space="preserve" text-anchor="start" x="207.38" y="-274.05" font-family="Helvetica,sans-Serif" font-weight="bold" font-size="11.00">b2c3d4e</text>
<text xml:space="preserve" text-anchor="start" x="205.88" y="-264.95" font-family="Helvetica,sans-Serif" font-size="9.00">item&#45;added</text>
<text xml:space="preserve" text-anchor="start" x="193.88" y="-256.9" font-family="Helvetica,sans-Serif" font-size="8.00" fill="#666666">{&quot;sku&quot;:&quot;WIDGET&#45;1&quot;}</text>
</g>
<!-- order_created&#45;&gt;item_added_1 -->
<g id="edge1" class="edge">
<title>order_created&#45;&gt;item_added_1</title>
<path fill="none" stroke="#616161" stroke-width="1.5" d="M249,-369.64C249,-369.64 249,-300.54 249,-300.54"/>
<polygon fill="#616161" stroke="#616161" stroke-width="1.5" points="252.5,-300.54 249,-290.54 245.5,-300.54 252.5,-300.54"/>
<text xml:space="preserve" text-anchor="middle" x="268.25" y="-324.7" font-family="Helvetica,sans-Serif" font-size="9.00">parent</text>
</g>
<!-- item_added_2 -->
<g id="node4" class="node">
<title>item_added_2</title>
<path fill="#e3f2fd" stroke="#1976d2" stroke-width="2" d="M406.12,-287.5C406.12,-287.5 342.12,-287.5 342.12,-287.5 336.12,-287.5 330.12,-281.5 330.12,-275.5 330.12,-275.5 330.12,-263.5 330.12,-263.5 330.12,-257.5 336.12,-251.5 342.12,-251.5 342.12,-251.5 406.12,-251.5 406.12,-251.5 412.12,-251.5 418.12,-257.5 418.12,-263.5 418.12,-263.5 418.12,-275.5 418.12,-275.5 418.12,-281.5 412.12,-287.5 406.12,-287.5"/>
<text xml:space="preserve" text-anchor="start" x="353.88" y="-274.05" font-family="Helvetica,sans-Serif" font-weight="bold" font-size="11.00">c3d4e5f</text>
<text xml:space="preserve" text-anchor="start" x="350.88" y="-264.95" font-family="Helvetica,sans-Serif" font-size="9.00">item&#45;added</text>
<text xml:space="preserve" text-anchor="start" x="338.12" y="-256.9" font-family="Helvetica,sans-Serif" font-size="8.00" fill="#666666">{&quot;sku&quot;:&quot;GADGET&#45;2&quot;}</text>
</g>
<!-- order_created&#45;&gt;item_added_2 -->
<g id="edge2" class="edge">
<title>order_created&#45;&gt;item_added_2</title>
<path fill="none" stroke="#616161" stroke-width="1.5" d="M310.75,-369.67C310.75,-337.64 310.75,-276 310.75,-276 310.75,-276 317.15,-276 317.15,-276"/>
<polygon fill="#616161" stroke="#616161" stroke-width="1.5" points="317.15,-279.5 327.15,-276 317.15,-272.5 317.15,-279.5"/>
<text xml:space="preserve" text-anchor="middle" x="377.25" y="-324.7" font-family="Helvetica,sans-Serif" font-size="9.00">parent</text>
</g>
<!-- item_added_1&#45;&gt;empty_tree -->
<g id="edge7" class="edge">
<title>item_added_1&#45;&gt;empty_tree</title>
<path fill="none" stroke="#e65100" stroke-width="1.5" stroke-dasharray="5,2" d="M205.75,-288.5C205.75,-320.81 205.75,-383 205.75,-383 205.75,-383 97.39,-383 97.39,-383"/>
<polygon fill="#e65100" stroke="#e65100" stroke-width="1.5" points="97.39,-379.5 87.39,-383 97.39,-386.5 97.39,-379.5"/>
</g>
<!-- payment -->
<g id="node5" class="node">
<title>payment</title>
<path fill="#e8f5e9" stroke="#388e3c" stroke-width="2" d="M286.88,-169.75C286.88,-169.75 221.38,-169.75 221.38,-169.75 215.38,-169.75 209.38,-163.75 209.38,-157.75 209.38,-157.75 209.38,-145.75 209.38,-145.75 209.38,-139.75 215.38,-133.75 221.38,-133.75 221.38,-133.75 286.88,-133.75 286.88,-133.75 292.88,-133.75 298.88,-139.75 298.88,-145.75 298.88,-145.75 298.88,-157.75 298.88,-157.75 298.88,-163.75 292.88,-169.75 286.88,-169.75"/>
<text xml:space="preserve" text-anchor="start" x="233.88" y="-156.3" font-family="Helvetica,sans-Serif" font-weight="bold" font-size="11.00">d4e5f6a</text>
<text xml:space="preserve" text-anchor="start" x="217.38" y="-147.2" font-family="Helvetica,sans-Serif" font-size="9.00">payment&#45;received</text>
<text xml:space="preserve" text-anchor="start" x="223.38" y="-139.15" font-family="Helvetica,sans-Serif" font-size="8.00" fill="#666666">{&quot;amount&quot;:99.99}</text>
</g>
<!-- item_added_1&#45;&gt;payment -->
<g id="edge3" class="edge">
<title>item_added_1&#45;&gt;payment</title>
<path fill="none" stroke="#616161" stroke-width="1.5" d="M240.88,-250.58C240.88,-250.58 240.88,-182.89 240.88,-182.89"/>
<polygon fill="#616161" stroke="#616161" stroke-width="1.5" points="244.38,-182.89 240.88,-172.89 237.38,-182.89 244.38,-182.89"/>
<text xml:space="preserve" text-anchor="middle" x="262.25" y="-206.95" font-family="Helvetica,sans-Serif" font-size="9.00">parent</text>
</g>
<!-- item_added_2&#45;&gt;empty_tree -->
<g id="edge8" class="edge">
<title>item_added_2&#45;&gt;empty_tree</title>
<path fill="none" stroke="#e65100" stroke-width="1.5" stroke-dasharray="5,2" d="M374.12,-288.33C374.12,-305.43 374.12,-328 374.12,-328 374.12,-328 42.12,-328 42.12,-328 42.12,-328 42.12,-356.08 42.12,-356.08"/>
<polygon fill="#e65100" stroke="#e65100" stroke-width="1.5" points="38.63,-356.08 42.13,-366.08 45.63,-356.08 38.63,-356.08"/>
</g>
<!-- item_added_2&#45;&gt;payment -->
<g id="edge4" class="edge">
<title>item_added_2&#45;&gt;payment</title>
<path fill="none" stroke="#616161" stroke-width="1.5" d="M329.36,-264C307.41,-264 285.62,-264 285.62,-264 285.62,-264 285.62,-182.81 285.62,-182.81"/>
<polygon fill="#616161" stroke="#616161" stroke-width="1.5" points="289.13,-182.81 285.63,-172.81 282.13,-182.81 289.13,-182.81"/>
<text xml:space="preserve" text-anchor="middle" x="371.25" y="-206.95" font-family="Helvetica,sans-Serif" font-size="9.00">parent</text>
</g>
<!-- payment&#45;&gt;empty_tree -->
<g id="edge9" class="edge">
<title>payment&#45;&gt;empty_tree</title>
<path fill="none" stroke="#e65100" stroke-width="1.5" stroke-dasharray="5,2" d="M208.39,-152C151.9,-152 63.19,-152 63.19,-152 63.19,-152 63.19,-356.07 63.19,-356.07"/>
<polygon fill="#e65100" stroke="#e65100" stroke-width="1.5" points="59.69,-356.07 63.19,-366.07 66.69,-356.07 59.69,-356.07"/>
</g>
<!-- shipped -->
<g id="node6" class="node">
<title>shipped</title>
<path fill="#e3f2fd" stroke="#1976d2" stroke-width="2" d="M285.75,-52C285.75,-52 222.5,-52 222.5,-52 216.5,-52 210.5,-46 210.5,-40 210.5,-40 210.5,-28 210.5,-28 210.5,-22 216.5,-16 222.5,-16 222.5,-16 285.75,-16 285.75,-16 291.75,-16 297.75,-22 297.75,-28 297.75,-28 297.75,-40 297.75,-40 297.75,-46 291.75,-52 285.75,-52"/>
<text xml:space="preserve" text-anchor="start" x="233.88" y="-38.55" font-family="Helvetica,sans-Serif" font-weight="bold" font-size="11.00">e5f6a7b</text>
<text xml:space="preserve" text-anchor="start" x="225.25" y="-29.45" font-family="Helvetica,sans-Serif" font-size="9.00">order&#45;shipped</text>
<text xml:space="preserve" text-anchor="start" x="218.5" y="-21.4" font-family="Helvetica,sans-Serif" font-size="8.00" fill="#666666">{&quot;tracking&quot;:&quot;1Z999&quot;}</text>
</g>
<!-- payment&#45;&gt;shipped -->
<g id="edge5" class="edge">
<title>payment&#45;&gt;shipped</title>
<path fill="none" stroke="#616161" stroke-width="1.5" d="M254.12,-132.83C254.12,-132.83 254.12,-65.14 254.12,-65.14"/>
<polygon fill="#616161" stroke="#616161" stroke-width="1.5" points="257.63,-65.14 254.13,-55.14 250.63,-65.14 257.63,-65.14"/>
<text xml:space="preserve" text-anchor="middle" x="267.25" y="-89.2" font-family="Helvetica,sans-Serif" font-size="9.00">parent</text>
</g>
<!-- shipped&#45;&gt;empty_tree -->
<g id="edge10" class="edge">
<title>shipped&#45;&gt;empty_tree</title>
<path fill="none" stroke="#e65100" stroke-width="1.5" stroke-dasharray="5,2" d="M209.74,-34C142.12,-34 21.06,-34 21.06,-34 21.06,-34 21.06,-356.15 21.06,-356.15"/>
<polygon fill="#e65100" stroke="#e65100" stroke-width="1.5" points="17.56,-356.15 21.06,-366.15 24.56,-356.15 17.56,-356.15"/>
</g>
<!-- leg1 -->
<g id="node7" class="node">
<title>leg1</title>
<path fill="#e3f2fd" stroke="#1976d2" stroke-width="2" d="M754.12,-406.5C754.12,-406.5 724.12,-406.5 724.12,-406.5 718.12,-406.5 712.12,-400.5 712.12,-394.5 712.12,-394.5 712.12,-382.5 712.12,-382.5 712.12,-376.5 718.12,-370.5 724.12,-370.5 724.12,-370.5 754.12,-370.5 754.12,-370.5 760.12,-370.5 766.12,-376.5 766.12,-382.5 766.12,-382.5 766.12,-394.5 766.12,-394.5 766.12,-400.5 760.12,-406.5 754.12,-406.5"/>
<text xml:space="preserve" text-anchor="middle" x="739.12" y="-384.05" font-family="Helvetica,sans-Serif" font-size="11.00">Commit</text>
</g>
<!-- leg2 -->
<g id="node8" class="node">
<title>leg2</title>
<path fill="#e8f5e9" stroke="#388e3c" stroke-width="2" d="M754.12,-287.5C754.12,-287.5 724.12,-287.5 724.12,-287.5 718.12,-287.5 712.12,-281.5 712.12,-275.5 712.12,-275.5 712.12,-263.5 712.12,-263.5 712.12,-257.5 718.12,-251.5 724.12,-251.5 724.12,-251.5 754.12,-251.5 754.12,-251.5 760.12,-251.5 766.12,-257.5 766.12,-263.5 766.12,-263.5 766.12,-275.5 766.12,-275.5 766.12,-281.5 760.12,-287.5 754.12,-287.5"/>
<text xml:space="preserve" text-anchor="middle" x="739.12" y="-265.05" font-family="Helvetica,sans-Serif" font-size="11.00">Merge</text>
</g>
<!-- leg1&#45;&gt;leg2 -->
<!-- leg3 -->
<g id="node9" class="node">
<title>leg3</title>
<path fill="#fff3e0" stroke="#e65100" stroke-width="2" d="M775.25,-166.48C775.25,-168.28 759.06,-169.75 739.12,-169.75 719.19,-169.75 703,-168.28 703,-166.48 703,-166.48 703,-137.02 703,-137.02 703,-135.22 719.19,-133.75 739.12,-133.75 759.06,-133.75 775.25,-135.22 775.25,-137.02 775.25,-137.02 775.25,-166.48 775.25,-166.48"/>
<path fill="none" stroke="#e65100" stroke-width="2" d="M775.25,-166.48C775.25,-164.67 759.06,-163.2 739.12,-163.2 719.19,-163.2 703,-164.67 703,-166.48"/>
<text xml:space="preserve" text-anchor="middle" x="739.12" y="-147.3" font-family="Helvetica,sans-Serif" font-size="11.00">Empty Tree</text>
</g>
<!-- leg2&#45;&gt;leg3 -->
</g>
</svg>
